<!DOCTYPE svg PUBLIC "-//W3C//DTD SVG 20010904//EN" "http://www.w3.org/TR/2001/REC-SVG-20010904/DTD/svg10.dtd">
<svg version="1.0" xmlns="http://www.w3.org/2000/svg" width="469px" height="607px" viewBox="0 0 4690 6070" preserveAspectRatio="xMidYMid meet">
<g id="layer101" fill="#040404" stroke="none">
 <path d="M0 3035 l0 -3035 2345 0 2345 0 0 3035 0 3035 -2345 0 -2345 0 0 -3035z"/>
 </g>
<g id="layer102" fill="#212021" stroke="none">
 <path d="M0 3035 l0 -3035 2345 0 2345 0 0 3035 0 3035 -2345 0 -2345 0 0 -3035z m2356 2654 c3 -6 19 -9 34 -6 15 3 31 2 37 -4 5 -5 23 -11 39 -13 41 -6 62 -15 68 -32 3 -8 11 -14 19 -14 13 0 67 -50 67 -63 0 -4 15 -29 33 -55 17 -26 50 -84 71 -129 22 -45 47 -85 55 -88 17 -7 51 27 51 50 0 16 47 101 80 145 15 19 30 43 33 53 4 9 15 21 24 24 10 4 36 19 58 34 23 15 53 31 68 34 15 4 30 11 33 16 3 5 16 6 29 3 12 -3 26 -1 29 5 9 14 73 14 82 0 4 -6 19 -9 37 -5 16 3 35 1 42 -4 7 -6 17 -9 21 -8 19 6 145 -64 155 -85 5 -12 17 -35 27 -52 10 -16 24 -51 32 -78 7 -26 17 -50 21 -53 5 -3 9 -17 9 -32 0 -15 8 -37 18 -50 l17 -22 50 50 c27 27 55 50 62 50 8 0 16 7 19 15 4 8 10 15 14 15 9 0 113 68 120 79 3 5 16 11 30 14 14 4 41 16 60 28 19 13 44 23 56 25 11 1 38 11 58 22 21 12 44 18 51 16 7 -3 16 0 20 5 3 6 11 9 16 5 5 -3 16 0 24 6 8 6 19 9 25 5 6 -4 16 -2 23 3 13 11 138 9 156 -3 7 -4 15 -4 18 -1 8 8 61 -32 74 -56 20 -38 15 -92 -15 -163 -7 -16 -18 -41 -24 -55 -5 -14 -17 -41 -26 -62 -9 -20 -16 -42 -16 -50 -1 -13 -25 -83 -48 -141 -7 -16 -24 -74 -38 -130 -14 -56 -32 -125 -40 -152 -8 -28 -16 -64 -19 -80 -3 -17 -11 -61 -20 -98 -8 -38 -18 -85 -21 -105 -3 -20 -7 -46 -9 -57 -8 -41 -21 -123 -31 -195 -3 -19 -7 -48 -10 -65 -11 -78 -14 -104 -19 -150 -3 -27 -7 -63 -9 -80 -13 -97 -34 -347 -41 -490 -13 -271 -16 -412 -14 -770 3 -565 2 -752 -4 -805 -13 -102 -18 -136 -23 -150 -4 -8 -8 -28 -10 -45 -2 -16 -8 -39 -13 -50 -5 -11 -21 -58 -36 -105 -15 -47 -30 -94 -35 -105 -29 -70 -113 -231 -153 -293 -26 -40 -47 -76 -47 -81 0 -5 -7 -11 -15 -15 -8 -3 -15 -11 -15 -18 0 -7 -9 -19 -20 -26 -11 -7 -20 -17 -20 -23 0 -6 -11 -20 -25 -31 -14 -11 -25 -25 -25 -31 0 -15 -151 -167 -167 -167 -6 0 -20 -11 -31 -25 -11 -14 -25 -25 -31 -25 -6 0 -16 -9 -23 -20 -7 -11 -18 -20 -24 -20 -6 0 -23 -11 -38 -25 -15 -14 -31 -25 -35 -25 -5 0 -15 -7 -22 -16 -8 -9 -33 -25 -56 -35 -24 -10 -43 -23 -43 -29 0 -5 -7 -10 -15 -10 -19 0 -91 -36 -124 -61 -13 -10 -27 -16 -32 -13 -5 3 -21 -2 -36 -10 -16 -8 -52 -22 -82 -32 -29 -9 -65 -22 -78 -29 -14 -8 -31 -11 -38 -9 -7 3 -16 1 -19 -5 -4 -6 -13 -8 -20 -5 -8 3 -17 0 -21 -5 -3 -6 -11 -9 -16 -5 -5 3 -16 0 -24 -6 -8 -6 -19 -9 -25 -5 -5 3 -16 3 -22 -2 -7 -4 -26 -9 -43 -10 -40 -3 -79 -9 -85 -13 -6 -3 -147 -11 -210 -12 -98 0 -243 15 -355 37 -16 4 -39 8 -50 10 -11 2 -22 4 -25 6 -3 1 -9 3 -15 4 -5 1 -23 7 -38 14 -16 6 -32 9 -37 6 -5 -3 -11 -1 -14 3 -3 5 -27 15 -53 22 -27 7 -53 17 -59 22 -7 5 -16 8 -20 6 -5 -1 -21 6 -36 16 -15 10 -31 15 -36 12 -5 -3 -24 6 -42 19 -18 13 -45 27 -60 30 -15 3 -36 15 -46 26 -9 10 -21 19 -25 19 -5 0 -47 27 -94 60 -47 33 -90 60 -94 60 -5 0 -11 7 -15 15 -3 8 -11 15 -19 15 -7 0 -23 14 -35 30 -13 17 -28 30 -35 30 -15 0 -147 131 -147 147 0 7 -14 22 -30 35 -17 12 -30 28 -30 35 0 8 -7 16 -15 19 -8 4 -15 13 -15 20 0 8 -7 17 -15 20 -8 4 -15 10 -15 16 0 5 -19 37 -42 71 -69 100 -121 200 -159 302 -12 33 -28 74 -34 90 -23 53 -28 70 -27 77 1 4 -3 20 -9 35 -6 15 -13 43 -15 61 -2 18 -7 38 -11 45 -4 6 -6 19 -5 29 2 9 -2 19 -8 23 -5 3 -7 17 -4 30 3 12 1 26 -5 30 -7 4 -9 21 -5 44 3 21 2 41 -2 44 -5 3 -8 92 -7 199 3 308 1 1063 -3 1183 -4 120 -11 223 -19 325 -3 36 -6 88 -6 115 1 28 -2 57 -6 65 -4 8 -8 31 -10 50 -1 19 -5 58 -8 85 -3 28 -6 67 -6 87 0 20 -4 40 -10 43 -5 4 -7 21 -3 40 3 19 1 35 -5 39 -6 4 -8 18 -5 32 3 13 1 30 -5 38 -6 7 -9 21 -5 30 3 9 2 22 -4 29 -6 6 -10 23 -11 37 0 14 -3 41 -6 60 -3 19 -5 47 -5 62 0 15 -4 29 -9 32 -5 3 -7 15 -4 25 3 10 0 22 -6 25 -5 4 -8 13 -4 21 3 9 0 21 -6 29 -6 7 -8 16 -4 19 3 4 1 13 -6 20 -6 8 -9 21 -5 30 3 8 1 18 -4 21 -6 3 -8 15 -5 25 3 10 0 22 -6 25 -5 4 -8 13 -5 20 3 8 1 17 -5 20 -6 4 -8 12 -5 20 3 7 -1 26 -7 42 -7 16 -11 33 -10 38 1 4 -3 14 -9 20 -5 7 -7 15 -5 18 3 3 0 18 -6 34 -7 16 -11 32 -11 37 3 11 -77 253 -100 307 -11 25 -24 56 -30 70 -5 14 -18 42 -29 62 -24 47 -24 64 1 113 26 51 80 76 172 79 38 1 71 -2 75 -6 3 -5 12 -7 20 -4 9 4 22 1 30 -5 7 -7 16 -9 20 -6 3 4 12 2 19 -3 6 -6 16 -10 20 -9 11 3 23 -2 129 -48 44 -19 93 -40 109 -46 17 -7 40 -21 52 -32 12 -12 35 -27 51 -35 15 -8 32 -21 36 -27 4 -7 14 -13 21 -13 8 0 30 -20 50 -45 42 -51 66 -67 84 -56 7 4 27 56 46 115 27 90 40 117 82 166 47 56 75 77 101 72 6 -2 14 2 18 7 3 6 12 8 19 5 8 -3 17 0 21 6 4 6 20 8 40 4 19 -3 35 -1 39 5 9 14 73 14 81 0 4 -5 17 -9 28 -8 12 1 35 -3 50 -10 16 -6 32 -9 36 -6 5 2 23 -9 41 -25 19 -17 39 -30 45 -30 14 0 60 -49 68 -72 4 -10 11 -18 17 -18 5 0 10 -6 10 -13 0 -7 11 -29 25 -48 14 -19 31 -53 37 -76 5 -23 16 -47 23 -53 15 -13 45 -3 45 15 0 7 9 24 20 38 11 14 20 30 20 36 0 7 8 24 19 39 10 15 31 49 47 76 16 27 36 60 44 74 9 14 32 34 50 45 19 10 40 25 47 33 6 9 28 17 49 20 21 3 43 9 49 14 6 5 20 7 32 4 11 -3 24 -1 27 5 9 14 63 14 72 0z"/>
 <path d="M2233 5570 c-4 -4 -24 -13 -43 -20 -41 -16 -80 -48 -80 -67 0 -7 -4 -13 -9 -13 -11 0 -18 -12 -89 -151 -49 -97 -56 -106 -100 -126 -57 -27 -59 -27 -103 -7 -70 32 -66 27 -93 104 -9 25 -26 60 -38 79 -13 19 -28 43 -34 53 -19 32 -56 62 -112 90 -49 25 -61 27 -147 24 -137 -5 -159 -19 -217 -139 -5 -10 -11 -35 -14 -55 -2 -20 -9 -41 -14 -46 -6 -6 -10 -20 -10 -32 0 -30 -76 -104 -109 -105 -49 -2 -76 3 -92 17 -8 8 -21 14 -27 14 -6 0 -30 22 -54 50 -24 27 -49 50 -55 50 -7 0 -13 4 -13 9 0 5 -20 20 -45 32 -25 12 -45 26 -45 30 0 4 -30 22 -67 39 -38 18 -76 36 -85 41 -10 5 -26 9 -36 9 -10 0 -23 5 -29 11 -5 5 -21 11 -34 13 -13 2 -31 6 -39 9 -8 3 -22 6 -30 6 -8 0 -40 2 -71 5 -31 2 -63 0 -70 -4 -12 -8 -11 -16 22 -97 5 -13 13 -33 18 -45 5 -13 16 -39 24 -58 9 -19 19 -48 23 -65 3 -16 15 -48 24 -70 10 -22 21 -58 25 -80 4 -22 11 -44 15 -50 4 -5 10 -30 14 -55 4 -24 11 -49 15 -55 8 -10 32 -101 36 -139 1 -12 3 -21 5 -21 1 0 4 -11 6 -25 8 -47 11 -65 14 -65 1 0 4 -11 6 -25 5 -34 9 -50 17 -80 4 -14 9 -43 12 -65 3 -22 8 -52 10 -67 16 -92 22 -129 30 -188 3 -25 8 -58 11 -75 10 -72 20 -162 39 -340 42 -416 59 -1000 42 -1460 -14 -369 -11 -453 28 -620 2 -11 7 -33 10 -50 4 -16 9 -37 12 -45 4 -8 6 -18 5 -22 -2 -7 22 -80 38 -115 6 -13 14 -33 19 -45 9 -24 84 -175 112 -226 32 -60 81 -132 90 -132 5 0 9 -7 9 -15 0 -9 7 -18 15 -21 8 -4 15 -12 15 -20 0 -7 11 -21 25 -30 14 -9 25 -20 25 -25 0 -12 159 -169 170 -169 5 0 18 -14 30 -30 12 -17 27 -30 35 -30 7 0 15 -7 19 -15 3 -8 11 -15 18 -15 7 0 31 -16 52 -35 22 -19 47 -35 57 -35 9 0 19 -7 23 -15 3 -8 15 -15 26 -15 11 0 20 -4 20 -10 0 -13 113 -70 138 -70 11 0 25 -7 32 -15 7 -8 20 -15 29 -15 9 0 21 -4 27 -9 9 -9 108 -43 134 -46 8 -1 28 -7 44 -14 16 -6 35 -10 42 -7 8 3 16 1 20 -5 3 -6 13 -8 21 -5 8 3 20 3 26 -1 13 -9 47 -14 92 -14 17 0 37 -3 45 -6 20 -6 345 -7 356 -1 5 3 25 4 44 3 19 -2 40 0 45 3 6 4 21 8 35 9 14 2 32 3 40 4 8 1 20 6 27 11 7 5 16 7 22 4 5 -3 21 1 37 9 15 7 31 12 36 9 5 -3 14 -1 21 4 15 12 84 35 115 38 13 2 36 11 50 21 15 9 30 16 35 15 6 -2 64 27 176 87 55 30 171 112 171 121 0 6 6 10 14 10 7 0 21 11 30 25 9 14 20 25 25 25 11 0 201 187 201 198 0 4 9 13 20 20 11 7 20 18 20 26 0 8 7 16 15 20 8 3 15 12 15 21 0 8 4 15 9 15 20 0 126 185 195 340 31 71 78 221 71 228 -2 3 0 11 6 18 6 7 12 30 13 51 2 21 6 46 10 55 4 9 5 21 2 27 -4 5 -1 13 5 17 7 4 9 21 5 44 -3 20 -3 40 1 44 10 10 12 295 2 301 -4 3 -5 111 -3 239 3 156 1 236 -6 241 -13 8 -13 72 0 80 7 4 9 78 6 220 -4 147 -2 216 6 221 7 4 8 35 4 94 -5 64 -4 90 5 95 8 6 9 30 5 85 -5 55 -4 80 5 85 7 5 9 24 5 57 -5 33 -3 55 5 64 7 9 9 29 5 53 -4 25 -2 42 5 47 7 4 9 23 5 50 -3 27 -1 46 5 50 7 4 9 23 6 45 -3 22 -1 42 5 45 6 4 8 22 5 40 -3 19 -1 37 5 40 6 4 8 21 5 40 -3 19 -1 37 5 40 6 4 8 21 5 40 -3 19 -1 36 4 40 6 3 8 17 5 29 -3 13 -1 27 5 30 5 4 9 17 8 28 -1 12 1 30 6 40 4 9 5 24 2 32 -4 8 -2 17 4 21 6 3 9 16 8 27 -1 12 2 30 6 40 4 10 5 21 1 24 -3 3 -1 11 4 18 5 6 12 29 14 51 2 21 7 47 11 57 4 10 5 21 1 24 -3 3 -1 12 4 19 6 6 12 28 14 46 2 19 5 39 8 44 6 11 31 112 33 134 0 9 3 20 7 25 3 6 20 60 38 120 37 124 113 336 137 378 11 20 12 32 5 39 -11 11 -109 14 -152 4 -14 -3 -47 -10 -73 -15 -46 -10 -65 -17 -167 -63 -62 -27 -167 -96 -174 -114 -3 -8 -11 -14 -18 -14 -7 0 -32 -22 -55 -49 -54 -62 -111 -84 -169 -64 -53 19 -81 48 -100 107 -9 28 -19 55 -22 61 -3 5 -7 19 -8 30 -4 38 -46 115 -73 134 -35 24 -69 32 -170 36 -62 3 -90 0 -105 -11 -11 -8 -27 -14 -36 -14 -21 0 -90 -58 -90 -76 0 -8 -4 -14 -8 -14 -5 0 -26 -35 -46 -77 -20 -43 -42 -89 -49 -103 -16 -31 -100 -74 -130 -66 -44 11 -86 45 -121 99 -20 30 -36 59 -36 66 0 17 -61 121 -71 121 -5 0 -9 5 -9 12 0 19 -82 88 -106 88 -13 0 -25 4 -28 9 -6 10 -161 11 -173 1z m-558 -2942 c11 -2 26 -8 33 -12 7 -4 16 -5 19 -2 3 3 17 -4 31 -14 13 -11 33 -20 43 -20 10 0 23 -9 29 -20 6 -11 16 -20 22 -20 16 0 58 -41 58 -56 0 -7 6 -17 13 -21 35 -21 93 -199 84 -260 -11 -72 -16 -97 -25 -117 -5 -12 -15 -32 -21 -46 -6 -14 -17 -33 -23 -43 -14 -20 -98 -107 -104 -107 -2 0 -27 -14 -56 -31 -29 -18 -62 -33 -73 -34 -11 -1 -20 -3 -20 -4 0 -2 -65 -11 -105 -14 -14 -1 -31 2 -37 6 -7 5 -19 7 -28 4 -8 -4 -17 -2 -20 4 -4 5 -12 8 -18 7 -24 -5 -131 57 -176 102 -50 51 -82 103 -101 165 -6 22 -14 47 -17 55 -10 27 -10 135 0 148 5 7 7 15 5 18 -5 4 38 97 76 161 23 40 47 61 100 89 28 14 58 32 66 39 8 7 20 10 27 8 6 -2 14 0 17 6 4 6 13 8 20 5 8 -3 17 0 21 6 7 11 100 9 160 -2z m1450 2 c4 -6 12 -10 18 -9 17 3 82 -24 147 -62 34 -19 90 -71 90 -83 0 -5 12 -25 26 -43 35 -47 55 -123 56 -213 0 -62 -5 -89 -32 -157 -18 -46 -36 -83 -40 -83 -5 0 -17 -16 -29 -35 -11 -19 -27 -35 -35 -35 -8 0 -19 -6 -23 -12 -9 -15 -36 -33 -73 -49 -14 -6 -35 -16 -47 -22 -12 -5 -36 -10 -53 -9 -16 0 -32 -3 -34 -7 -3 -4 -22 -6 -43 -4 -73 8 -98 11 -98 13 0 1 -9 4 -20 5 -11 1 -44 16 -73 34 -29 17 -55 31 -57 31 -3 0 -22 17 -44 39 -47 47 -117 185 -112 223 1 9 -3 19 -9 23 -13 8 -13 92 0 100 6 4 10 14 9 23 -1 10 3 30 9 45 7 16 12 33 12 38 0 5 15 31 33 57 18 26 36 55 40 65 4 9 15 21 24 25 10 4 44 24 76 45 32 21 75 41 95 43 20 3 41 9 46 14 13 13 133 13 141 0z"/>
 <path d="M1524 2521 c-56 -10 -174 -89 -174 -116 0 -5 -8 -17 -17 -27 -47 -52 -54 -208 -13 -293 12 -25 25 -45 29 -45 4 0 13 -11 19 -25 6 -14 18 -25 26 -25 7 0 16 -7 20 -15 3 -8 13 -15 22 -15 10 0 26 -8 36 -17 27 -25 178 -27 233 -3 83 35 199 180 181 226 -3 8 -1 23 6 33 7 11 8 26 3 37 -5 11 -9 33 -10 49 -5 92 -123 218 -214 230 -14 2 -27 4 -28 6 -5 3 -100 4 -119 0z"/>
 <path d="M2994 2518 c-3 -4 -9 -6 -14 -3 -11 7 -81 -21 -95 -38 -6 -7 -19 -17 -30 -23 -10 -6 -23 -19 -29 -29 -6 -11 -17 -24 -24 -30 -28 -23 -50 -113 -46 -189 6 -100 20 -132 92 -203 68 -68 97 -77 239 -77 44 1 68 6 81 17 10 9 25 17 33 17 19 0 89 58 89 74 0 7 9 21 19 30 40 36 70 193 41 211 -6 4 -8 11 -5 16 11 17 -34 100 -77 143 -43 43 -87 68 -143 81 -45 11 -125 13 -131 3z"/>
 </g>
<g id="layer103" fill="#d2d2d2" stroke="none">
 <path d="M0 3035 l0 -3035 2345 0 2345 0 0 3035 0 3035 -2345 0 -2345 0 0 -3035z m2477 2634 c81 -31 153 -107 222 -234 74 -137 79 -145 94 -139 6 2 32 46 56 96 95 201 248 288 457 260 162 -22 231 -83 285 -257 18 -55 38 -106 44 -113 10 -11 25 -3 81 48 120 108 246 183 394 233 175 59 289 68 354 28 44 -28 76 -75 76 -113 0 -15 -20 -76 -44 -135 -141 -345 -246 -792 -307 -1298 -57 -487 -63 -605 -65 -1425 -1 -727 -2 -748 -23 -854 -143 -707 -673 -1261 -1356 -1419 -140 -33 -166 -37 -360 -52 -73 -6 -304 12 -394 30 -358 72 -660 226 -918 469 -242 228 -430 548 -512 874 -47 185 -50 244 -44 844 6 599 -2 857 -38 1253 -58 643 -172 1177 -335 1578 -24 59 -44 120 -44 135 0 41 34 89 82 114 142 75 514 -54 733 -253 90 -83 91 -83 125 31 63 215 150 282 365 284 106 1 112 0 178 -33 88 -44 154 -117 209 -229 24 -48 47 -90 53 -94 17 -12 34 12 92 126 83 162 168 239 294 266 65 13 179 3 246 -21z"/>
 <path d="M2239 5567 c-87 -25 -131 -71 -204 -216 -60 -120 -82 -148 -131 -167 -51 -19 -99 -13 -138 17 -15 12 -47 63 -71 115 -79 171 -174 235 -323 219 -135 -14 -169 -48 -223 -219 -44 -140 -92 -176 -207 -150 -13 2 -56 35 -97 73 -149 139 -381 246 -547 253 -76 4 -82 -9 -42 -102 162 -385 285 -958 343 -1595 36 -398 44 -612 40 -1100 -5 -776 -5 -777 19 -901 103 -525 429 -957 906 -1199 153 -77 368 -145 506 -160 30 -3 65 -8 77 -10 26 -6 316 -6 355 -1 26 4 67 10 142 22 65 11 218 56 302 90 466 187 825 568 979 1038 67 206 80 300 79 581 -1 138 -5 327 -8 420 -12 311 18 992 60 1380 60 560 177 1068 328 1435 21 50 31 89 26 94 -20 20 -141 6 -248 -30 -141 -47 -265 -120 -369 -218 -35 -32 -79 -64 -99 -71 -66 -22 -143 8 -176 69 -5 10 -21 57 -35 105 -13 47 -34 101 -45 120 -31 50 -93 74 -198 75 -77 1 -90 -2 -139 -29 -68 -37 -102 -79 -153 -185 -22 -47 -50 -95 -61 -108 -47 -51 -149 -49 -198 5 -14 16 -50 73 -79 128 -65 125 -112 182 -166 206 -56 25 -148 32 -205 16z m-533 -2943 c203 -61 333 -268 295 -470 -29 -156 -135 -281 -282 -329 -70 -24 -189 -23 -259 0 -242 80 -358 353 -246 581 53 105 143 182 261 220 49 16 175 15 231 -2z m1516 -21 c190 -89 285 -288 232 -488 -58 -223 -279 -350 -513 -294 -144 34 -269 168 -301 326 -31 147 37 318 162 410 84 61 158 84 263 80 76 -2 100 -7 157 -34z"/>
 <path d="M1462 2490 c-129 -65 -192 -193 -163 -331 50 -231 339 -313 503 -142 145 150 89 409 -105 481 -85 32 -159 29 -235 -8z"/>
 <path d="M2953 2502 c-76 -30 -126 -74 -162 -142 -30 -56 -34 -73 -34 -135 0 -269 315 -399 507 -209 57 57 80 114 80 204 1 128 -54 216 -169 271 -71 34 -154 38 -222 11z"/>
 </g>
<g id="layer104" fill="#fefefe" stroke="none">
 <path d="M0 3035 l0 -3035 2345 0 2345 0 0 3035 0 3035 -2345 0 -2345 0 0 -3035z m2426 2654 c3 -5 9 -7 14 -4 5 3 32 -8 60 -25 28 -16 53 -30 56 -30 10 0 74 -67 74 -79 0 -6 4 -11 9 -11 11 0 25 -24 76 -130 20 -41 43 -82 52 -92 19 -21 43 -24 43 -5 0 22 81 171 118 216 19 24 44 46 54 49 10 2 18 8 18 12 0 11 100 61 110 55 5 -3 11 -1 14 4 3 5 50 9 103 9 116 1 211 -24 264 -67 41 -34 99 -146 125 -239 9 -35 24 -66 32 -70 11 -4 32 12 62 46 26 29 51 52 57 52 6 0 13 7 17 15 3 8 12 15 20 15 8 0 16 5 18 11 13 39 357 193 389 174 4 -3 10 -1 14 4 3 5 13 10 23 10 9 0 50 3 90 5 98 6 166 -25 201 -91 19 -37 13 -66 -45 -209 -59 -148 -108 -300 -149 -467 -14 -56 -28 -109 -32 -117 -3 -8 -7 -30 -9 -49 -2 -18 -8 -39 -14 -45 -5 -7 -7 -16 -4 -19 4 -3 3 -14 -1 -24 -5 -10 -7 -25 -6 -35 1 -9 -2 -19 -8 -22 -5 -3 -7 -15 -4 -25 3 -10 0 -22 -6 -25 -5 -4 -8 -13 -4 -21 3 -8 2 -23 -2 -32 -5 -10 -7 -28 -6 -40 1 -11 -2 -24 -8 -27 -6 -4 -8 -13 -4 -21 3 -8 2 -23 -2 -32 -4 -10 -9 -29 -10 -43 -2 -14 -6 -43 -9 -65 -4 -22 -6 -51 -7 -65 0 -14 -3 -32 -6 -40 -7 -17 -12 -76 -12 -132 -1 -20 -5 -39 -11 -43 -5 -3 -7 -24 -4 -49 4 -27 2 -46 -5 -50 -7 -5 -9 -22 -5 -46 4 -22 3 -47 -2 -57 -4 -10 -9 -43 -10 -73 -2 -30 -5 -91 -8 -135 -3 -44 -8 -127 -10 -185 -6 -124 -7 -983 -2 -1223 2 -92 -1 -170 -6 -173 -5 -3 -6 -20 -2 -39 3 -19 1 -35 -5 -39 -6 -4 -8 -18 -5 -31 3 -13 3 -29 -2 -36 -4 -7 -8 -28 -10 -47 -2 -20 -8 -40 -13 -45 -5 -5 -7 -15 -5 -22 6 -16 -70 -245 -101 -305 -13 -25 -31 -61 -40 -80 -9 -19 -27 -53 -40 -75 -13 -22 -27 -47 -31 -55 -18 -35 -78 -120 -85 -120 -5 0 -9 -7 -9 -15 0 -9 -7 -18 -15 -21 -8 -4 -15 -12 -15 -20 0 -7 -11 -21 -25 -30 -14 -9 -25 -20 -25 -25 0 -5 -46 -54 -102 -108 -57 -55 -112 -109 -124 -120 -12 -12 -26 -21 -33 -21 -6 0 -11 -4 -11 -10 0 -9 -143 -110 -201 -141 -40 -22 -161 -80 -194 -94 -16 -7 -41 -17 -55 -23 -14 -6 -38 -13 -55 -17 -16 -4 -49 -15 -72 -26 -24 -11 -48 -17 -53 -14 -5 3 -12 0 -15 -6 -4 -5 -13 -8 -21 -5 -7 3 -16 1 -20 -5 -3 -6 -12 -8 -20 -5 -7 3 -16 0 -20 -5 -3 -6 -15 -9 -25 -6 -10 3 -21 1 -24 -4 -3 -4 -18 -8 -33 -8 -15 0 -47 -2 -72 -5 -78 -9 -412 -12 -417 -3 -2 4 -21 7 -41 7 -20 -1 -53 2 -72 5 -19 3 -45 5 -57 5 -12 0 -25 5 -28 10 -3 5 -12 7 -19 4 -8 -3 -17 -1 -20 5 -4 6 -13 8 -20 5 -8 -3 -17 0 -21 5 -3 6 -10 9 -14 6 -8 -4 -128 33 -181 56 -14 6 -43 19 -65 29 -22 10 -59 26 -82 35 -23 10 -50 26 -59 36 -10 11 -24 19 -32 19 -19 0 -172 99 -172 111 0 5 -7 9 -15 9 -9 0 -18 7 -21 15 -4 8 -12 15 -20 15 -7 0 -21 11 -30 25 -9 14 -20 25 -25 25 -11 0 -189 178 -189 189 0 5 -11 16 -25 25 -14 9 -25 23 -25 30 0 8 -7 16 -15 20 -8 3 -15 12 -15 21 0 8 -4 15 -9 15 -7 0 -48 58 -109 155 -14 23 -88 175 -107 220 -7 17 -20 46 -29 66 -8 20 -22 60 -30 90 -8 30 -22 79 -30 109 -8 30 -18 75 -22 100 -3 25 -8 56 -10 70 -13 82 -16 130 -13 265 6 346 3 1131 -5 1265 -16 279 -31 456 -51 620 -3 19 -7 51 -9 70 -5 35 -11 82 -21 150 -3 19 -7 51 -10 70 -11 79 -15 105 -30 185 -4 21 -53 250 -79 372 -9 40 -20 83 -25 95 -5 13 -14 43 -21 68 -21 77 -62 203 -77 240 -14 34 -20 47 -44 108 -6 15 -17 40 -25 55 -35 70 -5 159 65 194 37 18 57 21 115 18 106 -6 171 -18 214 -41 15 -8 35 -14 45 -14 9 0 25 -4 35 -9 9 -5 46 -23 82 -41 89 -42 130 -67 161 -96 14 -13 29 -24 34 -24 4 0 32 -26 61 -57 64 -71 79 -67 105 26 9 35 21 73 26 85 6 11 18 38 26 59 9 20 21 37 26 37 5 0 11 9 14 20 3 11 16 24 29 29 13 5 30 16 37 25 7 9 23 16 35 16 12 0 28 6 34 13 9 8 52 12 140 12 119 0 130 -2 184 -28 59 -30 148 -105 148 -125 0 -7 4 -12 9 -12 6 0 17 -12 25 -27 39 -72 66 -129 66 -144 0 -9 7 -19 15 -23 11 -4 27 18 60 82 75 143 88 163 140 216 70 71 155 102 283 103 51 0 95 -3 98 -8z"/>
 <path d="M2304 5569 c-3 -6 -19 -9 -35 -5 -15 3 -31 1 -35 -5 -3 -6 -12 -8 -20 -5 -8 3 -22 -3 -31 -13 -10 -10 -26 -21 -36 -24 -9 -4 -21 -17 -27 -31 -5 -13 -12 -25 -17 -27 -8 -4 -13 -13 -92 -163 -25 -49 -53 -92 -61 -96 -8 -4 -30 -14 -48 -23 -38 -19 -68 -22 -77 -7 -3 5 -12 7 -19 4 -26 -10 -85 55 -101 111 -9 29 -29 70 -45 91 -16 22 -30 44 -30 50 0 13 -43 54 -56 54 -5 0 -17 9 -27 20 -9 11 -23 17 -31 14 -8 -3 -17 -1 -20 4 -3 6 -15 8 -25 5 -10 -3 -22 0 -25 6 -9 14 -53 14 -62 0 -3 -6 -19 -9 -35 -5 -15 3 -31 1 -34 -4 -3 -6 -17 -10 -31 -10 -16 0 -36 -13 -57 -36 -33 -39 -47 -70 -73 -169 -9 -33 -23 -73 -32 -88 -18 -30 -79 -73 -89 -63 -3 3 -12 1 -19 -5 -8 -6 -21 -8 -31 -4 -10 5 -22 9 -28 10 -31 4 -66 29 -102 69 -22 25 -46 46 -52 46 -6 0 -16 9 -23 20 -7 11 -17 20 -22 20 -5 0 -23 10 -40 23 -17 12 -69 40 -116 61 -47 21 -100 46 -119 54 -18 8 -41 15 -50 15 -9 0 -21 4 -27 9 -6 4 -18 6 -27 2 -8 -3 -18 -1 -21 4 -3 5 -31 8 -63 6 -54 -3 -58 -5 -55 -26 1 -12 13 -45 27 -73 13 -28 27 -64 31 -80 4 -17 10 -34 14 -40 9 -12 63 -173 65 -195 1 -8 7 -28 13 -43 7 -15 11 -31 10 -35 -1 -4 4 -20 11 -36 6 -16 13 -40 14 -55 2 -15 7 -33 11 -40 4 -7 5 -15 2 -18 -3 -3 -1 -12 4 -19 6 -6 10 -16 9 -20 -2 -5 3 -27 9 -48 6 -22 9 -42 7 -45 -3 -2 -1 -9 4 -15 5 -6 12 -30 14 -53 3 -23 8 -46 11 -51 3 -5 8 -29 11 -53 3 -24 8 -57 11 -74 3 -16 7 -41 9 -55 2 -14 7 -41 10 -60 3 -19 8 -53 11 -75 3 -22 7 -53 10 -70 17 -103 34 -253 49 -430 2 -27 7 -86 11 -130 3 -44 7 -105 9 -135 1 -30 6 -125 11 -210 4 -85 7 -362 5 -615 -1 -253 -2 -521 -2 -595 -1 -158 5 -225 30 -325 5 -22 8 -41 6 -44 -3 -2 0 -10 5 -17 6 -6 10 -16 9 -20 -1 -5 0 -16 3 -24 3 -8 13 -40 22 -70 10 -30 22 -65 27 -77 5 -13 13 -33 18 -45 11 -26 78 -162 101 -205 8 -15 30 -49 48 -75 17 -26 32 -51 32 -56 0 -6 7 -12 15 -16 8 -3 15 -12 15 -21 0 -8 5 -15 10 -15 6 0 14 -8 18 -18 9 -22 33 -49 129 -145 96 -96 123 -120 145 -129 10 -4 18 -12 18 -18 0 -5 7 -10 15 -10 9 0 18 -7 21 -15 4 -8 10 -15 16 -15 5 0 30 -15 56 -32 62 -44 76 -52 148 -86 34 -16 64 -35 68 -41 4 -6 16 -11 27 -11 11 0 39 -9 61 -20 23 -11 47 -20 52 -20 6 -1 29 -9 50 -19 22 -11 45 -17 52 -14 7 2 15 0 18 -6 4 -6 13 -8 20 -5 8 3 17 1 20 -5 4 -6 13 -8 20 -5 8 3 17 0 21 -5 3 -6 11 -9 16 -5 6 3 18 2 27 -2 9 -4 26 -9 37 -10 11 -2 40 -6 65 -9 57 -8 382 -9 435 -1 22 3 54 8 70 11 17 3 39 6 50 8 11 2 25 5 30 8 6 3 23 6 39 7 16 1 35 7 43 13 7 7 16 9 20 6 3 -4 11 -3 17 2 6 5 29 14 51 21 22 6 59 20 82 31 24 10 46 19 51 19 4 0 37 16 72 35 36 19 73 35 82 35 9 0 18 4 20 9 3 11 154 111 166 111 4 0 13 9 20 20 7 11 17 20 23 20 6 0 20 11 31 25 11 14 25 25 31 25 15 0 157 141 157 157 0 6 11 20 25 31 14 11 25 25 25 31 0 6 9 16 20 23 11 7 20 16 20 20 0 4 24 45 54 90 47 72 132 232 156 293 44 111 93 304 107 420 7 53 7 75 2 765 -4 519 7 818 46 1200 12 128 15 157 20 190 3 19 7 53 10 75 3 22 7 54 10 70 2 17 6 47 9 69 3 21 8 46 10 55 3 9 8 43 11 75 3 33 8 63 10 67 3 4 7 25 10 48 3 22 12 71 21 108 8 37 19 88 24 113 4 25 18 81 30 125 12 44 26 98 31 119 10 42 94 296 110 334 5 12 14 34 20 50 6 15 17 38 24 52 29 57 26 62 -40 61 -65 -1 -91 -4 -116 -15 -9 -4 -27 -8 -40 -10 -46 -6 -208 -80 -273 -125 -24 -17 -49 -31 -54 -31 -6 0 -12 -7 -16 -15 -3 -8 -12 -15 -20 -15 -8 0 -34 -22 -59 -50 -25 -27 -50 -50 -57 -50 -7 0 -24 -7 -40 -16 -18 -11 -34 -14 -46 -9 -11 5 -23 7 -27 6 -14 -3 -67 33 -67 45 0 7 -6 14 -12 17 -7 2 -19 26 -27 53 -30 108 -78 223 -94 224 -4 0 -26 9 -48 20 -26 12 -51 17 -69 14 -15 -4 -31 -1 -34 5 -9 14 -53 14 -61 1 -4 -6 -14 -10 -23 -8 -10 1 -33 -6 -52 -16 -19 -10 -48 -25 -63 -33 -16 -8 -32 -25 -37 -38 -5 -13 -13 -24 -18 -26 -5 -2 -26 -42 -46 -87 -60 -139 -139 -192 -216 -147 -14 8 -35 19 -47 24 -13 6 -41 49 -72 112 -28 55 -59 113 -69 128 -9 14 -22 35 -28 46 -15 27 -123 82 -150 77 -12 -2 -25 1 -28 7 -9 14 -33 14 -42 0z m-622 -2930 c10 0 20 -4 23 -10 4 -5 16 -9 28 -9 12 0 37 -10 56 -23 19 -12 42 -27 51 -32 30 -18 80 -70 80 -82 0 -7 4 -13 9 -13 16 0 73 -132 78 -180 8 -80 4 -158 -8 -166 -5 -3 -7 -10 -3 -15 3 -5 -6 -34 -19 -63 -43 -94 -189 -222 -261 -230 -12 -1 -26 -5 -31 -8 -6 -3 -21 -4 -35 -3 -14 1 -31 -2 -37 -7 -7 -6 -25 -7 -40 -3 -16 4 -44 8 -63 10 -38 2 -142 48 -170 74 -9 9 -25 21 -35 27 -10 6 -23 19 -29 29 -6 10 -19 27 -30 38 -31 32 -65 119 -75 191 -5 37 -8 73 -6 79 3 7 7 28 9 47 7 55 33 128 58 163 30 42 95 107 108 107 6 0 10 4 10 10 0 13 74 50 99 50 11 0 23 5 26 11 4 6 13 8 19 6 7 -3 18 -2 23 1 6 4 42 6 80 4 37 -1 76 -2 85 -3z m1460 0 c10 0 20 -4 23 -10 4 -5 15 -9 25 -9 32 0 108 -46 155 -95 25 -25 45 -50 45 -55 0 -6 5 -10 11 -10 13 0 61 -104 64 -141 1 -16 5 -32 9 -36 3 -3 6 -32 6 -63 0 -31 -3 -60 -6 -63 -4 -4 -8 -19 -9 -34 -4 -42 -59 -153 -76 -153 -5 0 -9 -5 -9 -12 0 -14 -50 -68 -62 -68 -4 0 -17 -9 -28 -20 -11 -11 -28 -20 -39 -20 -10 0 -24 -6 -30 -13 -13 -16 -88 -40 -100 -33 -5 3 -23 1 -41 -5 -24 -9 -37 -9 -55 1 -12 7 -32 9 -43 6 -11 -4 -23 -2 -27 4 -3 6 -11 8 -16 4 -19 -11 -116 45 -171 100 -32 31 -58 60 -58 65 0 4 -9 16 -20 26 -11 10 -20 23 -20 30 0 7 -8 27 -17 46 -26 52 -27 189 -2 269 28 90 101 200 134 200 7 0 15 6 18 14 7 18 104 65 146 71 18 2 35 5 37 8 2 2 34 2 71 0 38 -2 76 -4 85 -4z"/>
 <path d="M1535 2510 c-4 -6 -12 -10 -18 -8 -7 1 -32 -9 -57 -22 -25 -13 -54 -29 -65 -35 -11 -5 -38 -47 -61 -91 -40 -81 -44 -107 -31 -201 12 -84 137 -203 230 -219 123 -22 213 19 309 142 11 13 26 52 34 86 17 73 8 135 -28 196 -13 21 -28 46 -34 57 -6 11 -26 28 -45 38 -19 10 -47 27 -64 37 -16 9 -35 16 -42 13 -6 -2 -14 1 -18 6 -8 14 -102 14 -110 1z"/>
 <path d="M2995 2509 c-4 -5 -12 -8 -18 -6 -14 5 -81 -29 -98 -49 -6 -8 -18 -14 -26 -14 -7 0 -16 -8 -20 -17 -3 -10 -15 -28 -25 -39 -36 -40 -57 -141 -45 -214 7 -40 55 -134 79 -157 26 -23 130 -75 162 -81 135 -23 264 54 322 193 21 52 21 160 0 206 -45 93 -65 114 -146 148 -30 13 -63 27 -72 32 -24 12 -105 11 -113 -2z"/>
 </g>

</svg>